<svg xmlns="http://www.w3.org/2000/svg" xmlns:xlink="http://www.w3.org/1999/xlink" width="500" zoomAndPan="magnify" viewBox="0 0 375 374.999991" height="500" preserveAspectRatio="xMidYMid meet" version="1.0"><defs><clipPath id="cff1509d9a"><path d="M 0.140625 138 L 374.859375 138 L 374.859375 352.035156 L 0.140625 352.035156 Z M 0.140625 138 " clip-rule="nonzero"/></clipPath><clipPath id="410598b010"><path d="M 139 22.96875 L 236 22.96875 L 236 120 L 139 120 Z M 139 22.96875 " clip-rule="nonzero"/></clipPath></defs><g clip-path="url(#cff1509d9a)"><path fill="#191636" d="M 120.285156 196.492188 C 120.175781 197.84375 120.121094 199.207031 120.121094 200.582031 L 120.121094 291.03125 C 120.121094 301.726562 128.824219 310.429688 139.519531 310.429688 C 150.214844 310.429688 158.914062 301.726562 158.914062 291.03125 L 158.914062 237.664062 C 158.914062 215.796875 141.816406 197.851562 120.285156 196.492188 Z M 254.714844 196.492188 C 233.183594 197.851562 216.085938 215.796875 216.085938 237.664062 L 216.085938 291.03125 C 216.085938 301.726562 224.785156 310.429688 235.480469 310.429688 C 246.179688 310.429688 254.878906 301.726562 254.878906 291.03125 L 254.878906 200.582031 C 254.878906 199.207031 254.824219 197.84375 254.714844 196.492188 Z M 368.714844 352.035156 C 365.320312 352.035156 362.570312 349.285156 362.570312 345.890625 L 362.570312 237.664062 C 362.570312 214.917969 344.066406 196.414062 321.316406 196.414062 L 267.03125 196.414062 C 267.125 197.792969 267.167969 199.183594 267.167969 200.582031 L 267.167969 291.03125 C 267.167969 308.503906 252.953125 322.714844 235.480469 322.714844 C 218.011719 322.714844 203.796875 308.503906 203.796875 291.03125 L 203.796875 237.664062 C 203.796875 223.363281 209.367188 209.917969 219.476562 199.804688 C 228.371094 190.914062 239.835938 185.535156 252.199219 184.363281 C 245.433594 164.566406 226.648438 150.292969 204.589844 150.292969 L 170.410156 150.292969 C 148.351562 150.292969 129.566406 164.566406 122.804688 184.363281 C 135.164062 185.535156 146.628906 190.914062 155.523438 199.804688 C 165.632812 209.917969 171.203125 223.363281 171.203125 237.664062 L 171.203125 291.03125 C 171.203125 308.503906 156.988281 322.714844 139.519531 322.714844 C 122.046875 322.714844 107.832031 308.503906 107.832031 291.03125 L 107.832031 200.582031 C 107.832031 199.183594 107.878906 197.792969 107.96875 196.414062 L 53.679688 196.414062 C 30.933594 196.414062 12.429688 214.917969 12.429688 237.664062 L 12.429688 345.890625 C 12.429688 349.285156 9.679688 352.035156 6.285156 352.035156 C 2.890625 352.035156 0.140625 349.285156 0.140625 345.890625 L 0.140625 237.664062 C 0.140625 223.363281 5.710938 209.917969 15.824219 199.804688 C 25.933594 189.691406 39.378906 184.125 53.679688 184.125 L 110.007812 184.125 C 112.828125 173.710938 118.328125 164.167969 126.160156 156.332031 C 137.980469 144.515625 153.695312 138.003906 170.410156 138.003906 L 204.589844 138.003906 C 221.304688 138.003906 237.019531 144.515625 248.839844 156.332031 C 256.671875 164.167969 262.171875 173.710938 264.992188 184.125 L 321.316406 184.125 C 335.617188 184.125 349.066406 189.691406 359.179688 199.804688 C 369.292969 209.917969 374.859375 223.363281 374.859375 237.664062 L 374.859375 345.890625 C 374.859375 349.285156 372.105469 352.035156 368.714844 352.035156 " fill-opacity="1" fill-rule="nonzero"/></g><g clip-path="url(#410598b010)"><path fill="#191636" d="M 187.5 35.257812 C 167.734375 35.257812 151.65625 51.335938 151.65625 71.101562 C 151.65625 90.863281 167.734375 106.941406 187.5 106.941406 C 207.265625 106.941406 223.34375 90.863281 223.34375 71.101562 C 223.34375 51.335938 207.265625 35.257812 187.5 35.257812 Z M 187.5 119.234375 C 174.644531 119.234375 162.558594 114.222656 153.464844 105.132812 C 144.375 96.042969 139.367188 83.957031 139.367188 71.101562 C 139.367188 58.242188 144.375 46.15625 153.464844 37.066406 C 162.558594 27.976562 174.644531 22.96875 187.5 22.96875 C 200.355469 22.96875 212.441406 27.976562 221.535156 37.066406 C 230.625 46.15625 235.632812 58.242188 235.632812 71.101562 C 235.632812 83.957031 230.625 96.042969 221.535156 105.132812 C 212.441406 114.222656 200.355469 119.234375 187.5 119.234375 " fill-opacity="1" fill-rule="nonzero"/></g><path fill="#191636" d="M 293.695312 78.675781 C 273.933594 78.675781 257.851562 94.757812 257.851562 114.519531 C 257.851562 134.285156 273.933594 150.363281 293.695312 150.363281 C 313.460938 150.363281 329.539062 134.285156 329.539062 114.519531 C 329.539062 94.757812 313.460938 78.675781 293.695312 78.675781 Z M 293.695312 162.652344 C 280.839844 162.652344 268.753906 157.644531 259.664062 148.554688 C 250.570312 139.464844 245.566406 127.375 245.566406 114.519531 C 245.566406 101.664062 250.570312 89.578125 259.664062 80.484375 C 268.753906 71.394531 280.839844 66.390625 293.695312 66.390625 C 306.554688 66.390625 318.640625 71.394531 327.730469 80.484375 C 336.820312 89.578125 341.828125 101.664062 341.828125 114.519531 C 341.828125 127.375 336.820312 139.464844 327.730469 148.554688 C 318.640625 157.644531 306.554688 162.652344 293.695312 162.652344 " fill-opacity="1" fill-rule="nonzero"/><path fill="#191636" d="M 81.304688 78.675781 C 61.539062 78.675781 45.460938 94.757812 45.460938 114.519531 C 45.460938 134.285156 61.539062 150.363281 81.304688 150.363281 C 101.066406 150.363281 117.144531 134.285156 117.144531 114.519531 C 117.144531 94.757812 101.066406 78.675781 81.304688 78.675781 Z M 81.304688 162.652344 C 68.449219 162.652344 56.359375 157.644531 47.269531 148.554688 C 38.179688 139.464844 33.171875 127.375 33.171875 114.519531 C 33.171875 101.664062 38.179688 89.578125 47.269531 80.484375 C 56.359375 71.394531 68.449219 66.390625 81.304688 66.390625 C 94.160156 66.390625 106.246094 71.394531 115.339844 80.484375 C 124.429688 89.578125 129.433594 101.664062 129.433594 114.519531 C 129.433594 127.375 124.429688 139.464844 115.339844 148.554688 C 106.246094 157.644531 94.160156 162.652344 81.304688 162.652344 " fill-opacity="1" fill-rule="nonzero"/></svg>