<svg xmlns="http://www.w3.org/2000/svg" xmlns:xlink="http://www.w3.org/1999/xlink" width="500" zoomAndPan="magnify" viewBox="0 0 375 374.999991" height="500" preserveAspectRatio="xMidYMid meet" version="1.0"><defs><clipPath id="3994cb6fef"><path d="M 0 41 L 375 41 L 375 334.546875 L 0 334.546875 Z M 0 41 " clip-rule="nonzero"/></clipPath></defs><g clip-path="url(#3994cb6fef)"><path fill="#191636" d="M 368.226562 65.152344 C 364.511719 65.152344 361.511719 68.152344 361.511719 71.867188 L 361.511719 321.027344 L 205.253906 321.027344 C 225.089844 305.859375 268.953125 280.574219 341.984375 278.972656 L 348.527344 278.835938 L 348.527344 42.421875 L 342.257812 42.011719 C 341.304688 41.945312 318.367188 40.546875 287.183594 48.554688 C 259.816406 55.578125 220.898438 71.492188 187.5 107.308594 C 154.101562 71.492188 115.183594 55.578125 87.816406 48.554688 C 56.632812 40.546875 33.695312 41.945312 32.742188 42.011719 L 26.472656 42.421875 L 26.472656 278.835938 L 33.015625 278.972656 C 106.046875 280.574219 149.910156 305.859375 169.746094 321.027344 L 13.453125 321.027344 L 13.453125 71.867188 C 13.453125 68.152344 10.453125 65.152344 6.738281 65.152344 C 3.023438 65.152344 0.0585938 68.152344 0.0585938 71.867188 L 0.0585938 334.453125 L 374.941406 334.453125 L 374.941406 71.867188 C 374.941406 68.152344 371.941406 65.152344 368.226562 65.152344 Z M 180.785156 312.503906 C 161.222656 296.589844 116.511719 268.917969 39.867188 265.78125 L 39.867188 55.304688 C 60.652344 55.679688 128.984375 61.507812 180.785156 119.816406 Z M 194.214844 119.816406 C 225.941406 84.101562 263.738281 68.492188 290.046875 61.640625 C 310.019531 56.460938 326.582031 55.40625 335.132812 55.269531 L 335.132812 265.746094 C 258.488281 268.882812 213.777344 296.554688 194.214844 312.472656 Z M 194.214844 119.816406 " fill-opacity="1" fill-rule="nonzero"/></g><path fill="#191636" d="M 164.90625 135.664062 C 101.6875 89.621094 63.140625 90.882812 61.539062 90.953125 C 57.859375 91.121094 55.03125 94.222656 55.167969 97.902344 C 55.304688 101.585938 58.40625 104.480469 62.121094 104.3125 C 62.496094 104.3125 98.140625 103.59375 157 146.46875 C 158.191406 147.320312 159.554688 147.761719 160.953125 147.761719 C 163.03125 147.761719 165.074219 146.808594 166.371094 145.003906 C 168.550781 142.039062 167.871094 137.84375 164.90625 135.664062 Z M 164.90625 135.664062 " fill-opacity="1" fill-rule="nonzero"/><path fill="#191636" d="M 164.90625 173.015625 C 101.6875 126.941406 63.140625 128.199219 61.539062 128.304688 C 57.859375 128.472656 55.03125 131.574219 55.167969 135.253906 C 55.304688 138.9375 58.4375 141.832031 62.121094 141.664062 C 62.460938 141.664062 98.140625 140.945312 157 183.820312 C 158.191406 184.671875 159.554688 185.113281 160.953125 185.113281 C 163.03125 185.113281 165.074219 184.160156 166.371094 182.355469 C 168.550781 179.390625 167.871094 175.195312 164.90625 173.015625 Z M 164.90625 173.015625 " fill-opacity="1" fill-rule="nonzero"/><path fill="#191636" d="M 164.90625 210.367188 C 101.6875 164.292969 63.140625 165.550781 61.539062 165.621094 C 57.859375 165.792969 55.03125 168.890625 55.167969 172.574219 C 55.304688 176.253906 58.40625 179.117188 62.121094 178.980469 C 62.496094 178.980469 98.140625 178.265625 157 221.136719 C 158.191406 221.988281 159.554688 222.433594 160.953125 222.433594 C 163.03125 222.433594 165.074219 221.476562 166.371094 219.671875 C 168.550781 216.707031 167.871094 212.515625 164.90625 210.367188 Z M 164.90625 210.367188 " fill-opacity="1" fill-rule="nonzero"/><path fill="#191636" d="M 164.90625 247.683594 C 101.6875 201.644531 63.140625 202.902344 61.539062 202.972656 C 57.859375 203.144531 55.03125 206.242188 55.167969 209.925781 C 55.304688 213.605469 58.4375 216.503906 62.121094 216.332031 C 62.460938 216.332031 98.140625 215.617188 157 258.488281 C 158.191406 259.339844 159.554688 259.785156 160.953125 259.785156 C 163.03125 259.785156 165.074219 258.828125 166.371094 257.023438 C 168.550781 254.058594 167.871094 249.867188 164.90625 247.683594 Z M 164.90625 247.683594 " fill-opacity="1" fill-rule="nonzero"/><path fill="#191636" d="M 313.460938 90.953125 C 311.859375 90.882812 273.3125 89.621094 210.09375 135.664062 C 207.097656 137.84375 206.449219 142.039062 208.628906 145.035156 C 209.925781 146.84375 211.96875 147.796875 214.046875 147.796875 C 215.410156 147.796875 216.808594 147.386719 218 146.5 C 276.6875 103.730469 312.300781 104.3125 312.878906 104.34375 C 316.5625 104.480469 319.664062 101.652344 319.867188 97.972656 C 320.039062 94.257812 317.175781 91.121094 313.460938 90.953125 Z M 313.460938 90.953125 " fill-opacity="1" fill-rule="nonzero"/><path fill="#191636" d="M 313.460938 128.304688 C 311.859375 128.234375 273.3125 126.972656 210.09375 173.015625 C 207.097656 175.195312 206.449219 179.390625 208.628906 182.386719 C 209.925781 184.195312 211.96875 185.148438 214.046875 185.148438 C 215.410156 185.148438 216.808594 184.738281 218 183.851562 C 276.6875 141.117188 312.300781 141.664062 312.878906 141.695312 C 316.5625 141.867188 319.664062 139.003906 319.867188 135.324219 C 320.039062 131.609375 317.175781 128.472656 313.460938 128.304688 Z M 313.460938 128.304688 " fill-opacity="1" fill-rule="nonzero"/><path fill="#191636" d="M 313.460938 165.621094 C 311.859375 165.550781 273.3125 164.292969 210.09375 210.332031 C 207.097656 212.515625 206.449219 216.707031 208.628906 219.707031 C 209.925781 221.511719 211.96875 222.464844 214.046875 222.464844 C 215.410156 222.464844 216.808594 222.058594 218 221.171875 C 276.6875 178.433594 312.300781 178.980469 312.878906 179.015625 C 316.5625 179.152344 319.664062 176.320312 319.867188 172.640625 C 320.039062 168.925781 317.175781 165.792969 313.460938 165.621094 Z M 313.460938 165.621094 " fill-opacity="1" fill-rule="nonzero"/><path fill="#191636" d="M 313.460938 202.972656 C 311.859375 202.902344 273.3125 201.644531 210.09375 247.683594 C 207.097656 249.867188 206.449219 254.058594 208.628906 257.058594 C 209.925781 258.863281 211.96875 259.816406 214.046875 259.816406 C 215.410156 259.816406 216.808594 259.410156 218 258.523438 C 276.6875 215.785156 312.300781 216.332031 312.878906 216.367188 C 316.5625 216.503906 319.664062 213.671875 319.867188 209.992188 C 320.039062 206.277344 317.175781 203.144531 313.460938 202.972656 Z M 313.460938 202.972656 " fill-opacity="1" fill-rule="nonzero"/></svg>