<svg xmlns="http://www.w3.org/2000/svg" xmlns:xlink="http://www.w3.org/1999/xlink" width="500" zoomAndPan="magnify" viewBox="0 0 375 374.999991" height="500" preserveAspectRatio="xMidYMid meet" version="1.0"><defs><clipPath id="76e7b263ad"><path d="M 37 165 L 338 165 L 338 357.609375 L 37 357.609375 Z M 37 165 " clip-rule="nonzero"/></clipPath><clipPath id="b4761e934e"><path d="M 1 17.109375 L 374 17.109375 L 374 170 L 1 170 Z M 1 17.109375 " clip-rule="nonzero"/></clipPath></defs><g clip-path="url(#76e7b263ad)"><path fill="#191636" d="M 321 357.816406 L 232.695312 357.816406 C 224.957031 357.816406 218.660156 351.519531 218.660156 343.78125 L 218.660156 248.035156 C 218.660156 231.265625 205.015625 217.621094 188.242188 217.621094 L 186.742188 217.621094 C 169.96875 217.621094 156.324219 231.265625 156.324219 248.035156 L 156.324219 343.78125 C 156.324219 351.519531 150.03125 357.816406 142.289062 357.816406 L 53.984375 357.816406 C 45.117188 357.816406 37.902344 350.601562 37.902344 341.734375 L 37.902344 173.324219 C 37.902344 168.824219 41.550781 165.175781 46.050781 165.175781 C 50.550781 165.175781 54.195312 168.824219 54.195312 173.324219 L 54.195312 341.523438 L 140.035156 341.523438 L 140.035156 248.035156 C 140.035156 222.28125 160.988281 201.328125 186.742188 201.328125 L 188.242188 201.328125 C 214 201.328125 234.953125 222.28125 234.953125 248.035156 L 234.953125 341.523438 L 320.789062 341.523438 L 320.789062 173.644531 C 320.789062 169.144531 324.4375 165.496094 328.9375 165.496094 C 333.433594 165.496094 337.082031 169.144531 337.082031 173.644531 L 337.082031 341.734375 C 337.082031 350.601562 329.871094 357.816406 321.003906 357.816406 Z M 321 357.816406 " fill-opacity="1" fill-rule="nonzero"/></g><g clip-path="url(#b4761e934e)"><path fill="#191636" d="M 365.773438 169.609375 C 364.054688 169.609375 362.324219 169.066406 360.851562 167.945312 L 187.460938 36.179688 L 14.136719 167.929688 C 10.554688 170.65625 5.445312 169.957031 2.71875 166.375 C -0.00390625 162.792969 0.695312 157.683594 4.277344 154.960938 L 182.53125 19.460938 C 185.441406 17.246094 189.476562 17.246094 192.390625 19.460938 L 370.710938 154.972656 C 374.292969 157.695312 374.988281 162.808594 372.265625 166.390625 C 370.664062 168.5 368.234375 169.609375 365.773438 169.609375 Z M 365.773438 169.609375 " fill-opacity="1" fill-rule="nonzero"/></g></svg>